<svg width="444" height="444" viewBox="0 0 444 444" fill="none" xmlns="http://www.w3.org/2000/svg">
<path d="M137.413 287.966L0.5 424.879V0.5H424.879L287.966 137.413L287.612 137.767L287.966 138.121L438.293 288.32L288.32 438.293L138.121 287.966L137.767 287.612L137.413 287.966Z" stroke="#EFEFEF"/>
<rect x="392.013" y="233.527" width="71.4641" height="12" transform="rotate(45 392.013 233.527)" fill="#636363" stroke="#EFEFEF"/>
<rect x="291.934" y="133.449" width="70.1609" height="12" transform="rotate(45 291.934 133.449)" fill="#636363" stroke="#EFEFEF"/>
<path d="M336.5 237.5L335.793 238.207H337.207L336.5 237.5ZM350.5 224.5C350.5 223.948 350.052 223.5 349.5 223.5H340.5C339.948 223.5 339.5 223.948 339.5 224.5C339.5 225.052 339.948 225.5 340.5 225.5H348.5V233.5C348.5 234.052 348.948 234.5 349.5 234.5C350.052 234.5 350.5 234.052 350.5 233.5V224.5ZM260.793 163.207L335.793 238.207L337.207 236.793L262.207 161.793L260.793 163.207ZM337.207 238.207L350.207 225.207L348.793 223.793L335.793 236.793L337.207 238.207Z" fill="#EFEFEF"/>
<rect x="183.06" y="340.545" width="69.4538" height="12" transform="rotate(-135 183.06 340.545)" fill="#636363" stroke="#EFEFEF"/>
<rect x="284.06" y="442.545" width="70.8698" height="12" transform="rotate(-135 284.06 442.545)" fill="#636363" stroke="#EFEFEF"/>
<path d="M232.5 343.5L233.207 344.207L233.207 342.793L232.5 343.5ZM219.5 329.5C218.948 329.5 218.5 329.948 218.5 330.5L218.5 339.5C218.5 340.052 218.948 340.5 219.5 340.5C220.052 340.5 220.5 340.052 220.5 339.5L220.5 331.5L228.5 331.5C229.052 331.5 229.5 331.052 229.5 330.5C229.5 329.948 229.052 329.5 228.5 329.5L219.5 329.5ZM158.707 418.707L233.207 344.207L231.793 342.793L157.293 417.293L158.707 418.707ZM233.207 342.793L220.207 329.793L218.793 331.207L231.793 344.207L233.207 342.793Z" fill="#EFEFEF"/>
</svg>
