<svg width="58" height="15" viewBox="0 0 58 15" fill="none" xmlns="http://www.w3.org/2000/svg">
<path d="M1.32694 2.68H4.19094V2.728C4.19094 4.888 2.81494 6.616 0.750937 7.368L1.85494 8.84C3.23094 8.36 4.73494 6.936 5.16694 5.544C5.77494 6.856 7.16694 8.04 8.25494 8.44L9.27894 6.968C7.64694 6.44 6.14294 4.856 6.11094 2.68H8.84694V1.144H1.32694V2.68ZM12.6229 10.344V0.00799942H10.7509V3.8H8.60694V5.304H10.7509V10.344H12.6229ZM12.9269 13.88V12.408H4.97494V9.384H3.08694V13.88H12.9269ZM26.1467 14.264V0.00799942H24.2747V14.264H26.1467ZM23.2027 9.624C21.0427 8.232 19.9067 6.104 19.9067 3.288V1.208H17.9707V3.384C17.9707 6.216 16.7387 8.472 14.4347 9.96L15.5707 11.336C17.0427 10.536 18.5147 8.728 18.9787 7.096C19.4587 8.584 20.9467 10.312 22.1147 11.032L23.2027 9.624ZM43.4256 8.776V7.272H35.2656V5.544H43.0096V0.919999H33.3296V2.408H41.1536V4.056H33.4096V8.776H37.2336V11H31.7616V12.488H44.6416V11H39.1056V8.776H43.4256ZM57.0613 14.264V0.00799942H55.2053V14.264H57.0613ZM52.7253 10.744V1.128H50.8373V4.584H47.8453V1.16H45.9893V10.744H52.7253ZM50.8373 9.272H47.8453V6.056H50.8373V9.272Z" fill="#EFEFEF"/>
</svg>
