<svg xmlns="http://www.w3.org/2000/svg" viewBox="0 0 315.5 185"><defs><style>.cls-1{fill:#efefef;fill-rule:evenodd;}</style></defs><g id="레이어_2" data-name="레이어 2"><g id="레이어_1-2" data-name="레이어 1"><path class="cls-1" d="M0,24.5V0H302.5V64.5H297v17h18.5v2H297v15h5.5V163H83v5.5H58.5V163h-16v18.59l4.66-4.66a1,1,0,1,1,1.41,1.41l-6.36,6.37a1,1,0,0,1-1.42,0l-6.36-6.37a1,1,0,1,1,1.41-1.41l4.66,4.66V163h-16v5.5H0V24.5ZM42.5,162V143h-2v19h-16v-5.5H1V1H290.5V64.5H296v17H276.91l4.66-4.66a1,1,0,0,0-1.41-1.41l-6.37,6.36a1,1,0,0,0,0,1.42l6.37,6.36a1,1,0,0,0,1.41-1.41l-4.66-4.66H296v15h-5.5V162H83v-5.5H58.5V162ZM70.22,86.84h2V82h4.67v4.89h2v-11h-2V80.4H72.19V75.87h-2ZM91.51,75.28H81.86v1.5h7.79a24.14,24.14,0,0,1-.38,4.58h-9v1.48h5.47v5.92h1.87V82.84h5.53V81.36H91A33.38,33.38,0,0,0,91.51,75.28Zm4.14,8.12v1.49h8.07v3.89h1.87V83.4Zm6-2.27h2v1.54h1.87V74.51h-1.87v1.74h-2l0,1.57h2v1.74h-2Zm-7.74-2.4a3.67,3.67,0,0,0,7.31,0,3.66,3.66,0,0,0-7.31,0Zm1.8,0a1.83,1.83,0,0,1,1.84-1.92,1.81,1.81,0,0,1,1.88,1.92,1.84,1.84,0,0,1-1.88,1.92A1.79,1.79,0,0,1,95.73,78.72Zm16.21,1.58h2V78.41h-2Zm0,5.79h2V84.2h-2ZM132,87V85.48H126.5v-3h4V75.63h-9.79v6.83h3.92v3h-5.47V87Zm-3.41-6h-6.06V77.1h6.06Zm14-3v1.34h-2.14v1.51h2.14v4h1.88V74.51H142.6v2h-2.14V78Zm2.18,10.4V86.91H137v-3h-1.88v4.48Zm-3.62-6.69a5.11,5.11,0,0,1-3.29-4.64V75.32h-1.94v1.81A5.25,5.25,0,0,1,132.49,82l1.11,1.49A6,6,0,0,0,136.91,80a7,7,0,0,0,3.2,3.15Zm17.93,5.06V85.28H146.21v1.47ZM157.46,76h-9.78v1.48h7.9a37.67,37.67,0,0,1-.6,6.81l1.82.18A45.85,45.85,0,0,0,157.46,76Zm14.4,12.8V74.51h-1.79v5.6h-1.2V74.76h-1.76V88.11h1.76v-6.5h1.2v7.15ZM166.43,85c0-.48-.12-1-.2-1.44a18.71,18.71,0,0,1-4.13.35V81.21h3.5V76.06h-5.4v1.49h3.53v2.19h-3.52v5.63h1.14A25.29,25.29,0,0,0,166.43,85Zm15.78-2.56L182.07,81c-.41.07-1,.11-1.61.17h0l-.28,0c.08-.64.14-1.31.21-2h0c0-.43.08-.86.13-1.28-.59-.06-1.2-.13-1.81-.17l-.14,3.5a5.72,5.72,0,0,1-.58,0l-1.2,0c0-.39,0-.79,0-1.18,0-.81-.08-1.62-.09-2.38l-1.88.17c.08.68.15,1.41.22,2.12l.12,1.31h-1.84c0,.26.09.51.13.77h0c0,.26.08.51.13.77A60.42,60.42,0,0,0,182.21,82.41Zm-7,1.39v1.46h7.93v3.52h1.89v-5Zm9.81-.72V74.54h-1.88v8.54Zm-3.38-6V75.63h-7.92v1.49Zm20.22,3.5V74.91H200v1.52h-5.86V74.94h-1.87v5.68h3.82v1.47h-5.47V83.6h12.88V82.09H198V80.62Zm.16,7.73V86.86h-7.81V84.43h-1.87v3.92Zm-2-9.2h-5.86V77.87H200Zm4.64-2h2.86v0a4.91,4.91,0,0,1-3.44,4.64l1.11,1.47a5.76,5.76,0,0,0,3.31-3.3,6.16,6.16,0,0,0,3.09,2.9l1-1.47a4.61,4.61,0,0,1-3.17-4.29h2.74V75.64h-7.52ZM216,84.84V74.51H214.1V78.3H212v1.5h2.14v5Zm.3,3.54V86.91h-7.95v-3h-1.89v4.5Zm13.22.38V74.51h-1.87V88.76Zm-2.94-4.64a7.08,7.08,0,0,1-3.3-6.33V75.71h-1.94v2.17a7.47,7.47,0,0,1-3.53,6.58l1.14,1.38a7.78,7.78,0,0,0,3.4-4.24,8.51,8.51,0,0,0,3.14,3.93Z"/></g></g></svg>