<svg width="238" height="88" viewBox="0 0 238 88" fill="none" xmlns="http://www.w3.org/2000/svg">
<path d="M17.568 20.976V0H15.432V7.368H10.752V9.168H15.432V20.976H17.568ZM12.888 14.4C9.936 12.576 7.584 9.264 7.584 5.328V1.8H5.4V5.424C5.4 9.288 3.168 12.936 0 14.928L1.344 16.488C3.696 14.928 5.784 12.264 6.504 9.696C7.296 12.144 9.744 14.76 11.616 15.984L12.888 14.4Z" fill="#EFEFEF"/>
<path d="M37.9736 20.832V19.08H24.8696V17.472H37.1816V12.624H31.0376V10.656H39.4856V8.928H20.5496V10.656H28.9016V12.624H22.7096V14.352H35.0696V15.888H22.7576V20.832H37.9736ZM37.5176 4.128C37.5176 1.776 34.7336 0.432 30.0296 0.432C25.3976 0.432 22.5656 1.776 22.5656 4.128C22.5656 6.504 25.3976 7.824 30.0296 7.824C34.7336 7.824 37.5176 6.504 37.5176 4.128ZM30.0296 2.112C33.2696 2.112 35.3096 2.904 35.3096 4.128C35.3096 5.376 33.2696 6.168 30.0296 6.168C26.8376 6.168 24.7976 5.376 24.7976 4.128C24.7976 2.904 26.8376 2.112 30.0296 2.112Z" fill="#EFEFEF"/>
<path d="M58.1633 17.016C58.1633 14.544 55.5233 13.032 50.8913 13.032C46.2832 13.032 43.6432 14.544 43.6432 17.016C43.6432 19.44 46.2832 20.952 50.8913 20.952C55.5233 20.952 58.1633 19.44 58.1633 17.016ZM51.7793 6.36C51.7793 3.36 49.3073 1.32 46.3553 1.32C43.3553 1.32 40.9072 3.384 40.9072 6.36C40.9072 9.408 43.3792 11.328 46.3553 11.328C49.3313 11.328 51.7793 9.384 51.7793 6.36ZM52.3553 9.528H55.9072V13.008H58.0433V0H55.9072V2.76H52.3553C52.3553 3.36 52.3793 3.96 52.3793 4.56H55.9072V7.752H52.3793C52.3793 8.328 52.3553 8.928 52.3553 9.528ZM55.9553 17.016C55.9553 18.408 54.0833 19.248 50.8913 19.248C47.7472 19.248 45.8753 18.408 45.8753 17.016C45.8753 15.6 47.7472 14.736 50.8913 14.736C54.0833 14.736 55.9553 15.6 55.9553 17.016ZM49.6193 6.36C49.6193 8.256 48.2993 9.6 46.3553 9.6C44.4113 9.6 43.0433 8.256 43.0433 6.336C43.0433 4.512 44.4113 3.144 46.3553 3.144C48.3713 3.144 49.6193 4.512 49.6193 6.36Z" fill="#EFEFEF"/>
<path d="M73.0249 9.456C70.6249 8.64 68.0569 6.216 68.0569 2.904V0.984H65.8969V2.976C65.8969 6.288 63.6889 8.808 60.6889 10.08L61.9849 11.76C64.2649 10.68 66.4009 8.712 67.0249 6.504C67.9129 8.544 69.8809 10.272 71.7769 11.136L73.0249 9.456ZM77.6089 16.872C77.6089 14.352 74.9689 12.768 70.5289 12.768C66.0889 12.768 63.4489 14.352 63.4489 16.872C63.4489 19.416 66.0889 20.976 70.5289 20.976C74.9689 20.976 77.6089 19.416 77.6089 16.872ZM70.5289 14.52C73.5529 14.52 75.4249 15.384 75.4249 16.872C75.4249 18.36 73.5529 19.248 70.5289 19.248C67.5049 19.248 65.6569 18.36 65.6569 16.872C65.6569 15.384 67.5049 14.52 70.5289 14.52ZM80.4409 7.248V5.496H77.3209V0H75.1849V12.792H77.3209V7.248H80.4409Z" fill="#EFEFEF"/>
<path d="M100.342 17.928V16.176H90.7425V9.12H88.6065V16.176H81.4065V17.928H100.342ZM97.8945 1.944H83.3505V3.672H95.7105V6.192C95.7105 8.664 95.4225 11.592 94.9665 13.392C95.6625 13.488 96.3345 13.608 97.0065 13.728C97.6065 11.184 97.8465 8.52 97.8945 5.16V1.944Z" fill="#EFEFEF"/>
<path d="M120.628 11.76V10.032H101.692V11.76H120.628ZM118.396 17.184C118.396 14.784 115.756 13.416 111.148 13.416C106.564 13.416 103.924 14.856 103.924 17.184C103.924 19.536 106.564 20.952 111.148 20.952C115.756 20.952 118.396 19.56 118.396 17.184ZM111.148 15.144C114.292 15.144 116.236 15.912 116.236 17.184C116.236 18.504 114.292 19.224 111.148 19.224C108.052 19.224 106.108 18.504 106.108 17.184C106.108 15.912 108.052 15.144 111.148 15.144ZM118.324 7.944V6.216H106.084V2.616H118.18V0.888H103.972V7.944H118.324Z" fill="#EFEFEF"/>
<path d="M141.298 7.848V6.096H138.178V0H136.042V13.032H138.178V7.848H141.298ZM130.954 2.088V0.36H124.858V2.088H130.954ZM133.93 5.136V3.432H121.858V5.136H133.93ZM132.73 9.528C132.73 7.392 130.642 6.024 127.882 6.024C125.074 6.024 123.034 7.392 123.034 9.528C123.034 11.616 125.098 13.008 127.882 13.008C130.642 13.008 132.73 11.592 132.73 9.528ZM130.618 9.528C130.618 10.632 129.346 11.376 127.882 11.376C126.418 11.376 125.122 10.632 125.122 9.528C125.122 8.4 126.394 7.656 127.882 7.656C129.346 7.656 130.618 8.4 130.618 9.528ZM124.546 14.136V15.864H136.066V21H138.178V14.136H124.546Z" fill="#EFEFEF"/>
<path d="M161.199 17.928V16.176H154.143V9.24H152.031V16.176H148.959V9.24H146.823V16.176H142.263V17.928H161.199ZM158.991 2.304H144.207V4.032H156.831C156.855 7.272 156.639 10.92 156.015 13.44L158.079 13.776C158.775 10.896 158.991 7.224 158.991 2.304Z" fill="#EFEFEF"/>
<path d="M17.592 52.016C17.592 49.544 14.952 48.032 10.32 48.032C5.712 48.032 3.072 49.544 3.072 52.016C3.072 54.44 5.712 55.952 10.32 55.952C14.952 55.952 17.592 54.44 17.592 52.016ZM11.208 41.36C11.208 38.36 8.736 36.32 5.784 36.32C2.784 36.32 0.336 38.384 0.336 41.36C0.336 44.408 2.808 46.328 5.784 46.328C8.76 46.328 11.208 44.384 11.208 41.36ZM11.784 44.528H15.336V48.008H17.472V35H15.336V37.76H11.784C11.784 38.36 11.808 38.96 11.808 39.56H15.336V42.752H11.808C11.808 43.328 11.784 43.928 11.784 44.528ZM15.384 52.016C15.384 53.408 13.512 54.248 10.32 54.248C7.176 54.248 5.304 53.408 5.304 52.016C5.304 50.6 7.176 49.736 10.32 49.736C13.512 49.736 15.384 50.6 15.384 52.016ZM9.048 41.36C9.048 43.256 7.728 44.6 5.784 44.6C3.84 44.6 2.472 43.256 2.472 41.336C2.472 39.512 3.84 38.144 5.784 38.144C7.8 38.144 9.048 39.512 9.048 41.36Z" fill="#EFEFEF"/>
<path d="M32.4536 44.456C30.0536 43.64 27.4856 41.216 27.4856 37.904V35.984H25.3256V37.976C25.3256 41.288 23.1176 43.808 20.1176 45.08L21.4136 46.76C23.6936 45.68 25.8296 43.712 26.4536 41.504C27.3416 43.544 29.3096 45.272 31.2056 46.136L32.4536 44.456ZM37.0376 51.872C37.0376 49.352 34.3976 47.768 29.9576 47.768C25.5176 47.768 22.8776 49.352 22.8776 51.872C22.8776 54.416 25.5176 55.976 29.9576 55.976C34.3976 55.976 37.0376 54.416 37.0376 51.872ZM29.9576 49.52C32.9816 49.52 34.8536 50.384 34.8536 51.872C34.8536 53.36 32.9816 54.248 29.9576 54.248C26.9336 54.248 25.0856 53.36 25.0856 51.872C25.0856 50.384 26.9336 49.52 29.9576 49.52ZM39.8696 42.248V40.496H36.7496V35H34.6136V47.792H36.7496V42.248H39.8696Z" fill="#EFEFEF"/>
<path d="M57.9953 55.976V35H55.8833V55.976H57.9953ZM51.9953 50.624V37.112H41.9393V50.624H51.9953ZM49.8833 48.872H44.0513V38.84H49.8833V48.872Z" fill="#EFEFEF"/>
<path d="M78.3289 55.976V35H76.1929V55.976H78.3289ZM64.2649 48.92V38.768H72.2089V37.04H62.1769V50.744H64.5289C68.3449 50.744 72.0169 50.48 74.1769 50.024L73.8889 48.272C71.2249 48.8 67.3369 48.92 64.2649 48.92Z" fill="#EFEFEF"/>
<path d="M81.5025 43.904C81.5025 48.056 83.1825 51.32 86.9025 51.32C90.3585 51.32 91.9905 48.488 92.2305 44.744H96.4785V55.976H98.6145V35H96.4785V42.944H92.2305C91.9665 39.248 90.3105 36.488 86.9025 36.488C83.1825 36.488 81.5025 39.752 81.5025 43.904ZM90.1425 43.928C90.1425 47.144 89.0145 49.496 86.9025 49.496C84.7665 49.496 83.6865 47.144 83.6865 43.928C83.6865 40.664 84.7665 38.312 86.9025 38.312C89.0145 38.312 90.1425 40.664 90.1425 43.928Z" fill="#EFEFEF"/>
<path d="M121.228 45.536V43.784H118.012V35H115.9V55.976H118.012V45.536H121.228ZM114.772 50.84L114.508 49.184C112.732 49.448 110.452 49.592 107.788 49.712V43.136H105.724V49.784C104.188 49.832 102.484 49.832 101.212 49.832L101.524 51.608C103.228 51.608 105.436 51.56 107.548 51.464C109.708 51.344 112.78 51.128 114.772 50.84ZM113.404 37.112H102.46V38.84H111.268C111.268 41.624 111.076 44.672 110.668 46.472L112.708 46.736C113.188 44.672 113.404 40.904 113.404 37.112Z" fill="#EFEFEF"/>
<path d="M144.626 39.752C144.626 37.184 141.89 35.648 137.258 35.648C132.674 35.648 129.914 37.184 129.914 39.752C129.914 42.104 132.218 43.568 136.13 43.832L136.154 45.968H127.802V47.696H146.738V45.968H138.29V43.832C142.274 43.616 144.626 42.104 144.626 39.752ZM137.258 37.376C140.402 37.376 142.418 38.264 142.418 39.776C142.418 41.288 140.402 42.128 137.258 42.128C134.162 42.128 132.146 41.288 132.146 39.776C132.146 38.264 134.162 37.376 137.258 37.376ZM144.482 55.352V53.648H132.362V49.376H130.25V55.352H144.482Z" fill="#EFEFEF"/>
<path d="M160.52 48.536C157.712 49.088 153.992 49.28 150.968 49.256V44.48H158.504V36.896H148.784V38.624H156.392V42.776H148.856V51.008H151.376C154.688 51.008 158.48 50.696 160.736 50.312L160.52 48.536ZM164.288 35H162.176V55.976H164.288V45.08H167.552V43.328H164.288V35Z" fill="#EFEFEF"/>
<path d="M185.582 50.24V35H183.446V50.24H185.582ZM186.062 55.328V53.624H173.918V48.8H171.782V55.328H186.062ZM174.446 36.416C171.23 36.416 168.854 38.648 168.854 41.672C168.854 44.672 171.23 46.76 174.446 46.76C177.686 46.76 180.062 44.672 180.062 41.648C180.062 38.648 177.686 36.416 174.446 36.416ZM174.446 38.24C176.51 38.24 177.806 39.656 177.806 41.648C177.806 43.568 176.51 44.984 174.446 44.984C172.478 44.984 171.086 43.544 171.086 41.624C171.086 39.68 172.478 38.24 174.446 38.24Z" fill="#EFEFEF"/>
<path d="M195.06 38.552H199.692V39.584C199.692 42.512 197.148 45.392 194.436 46.376L195.684 48.056C197.868 47.168 200.124 44.912 200.796 42.896C201.66 44.816 203.7 46.712 205.572 47.456L206.748 45.752C204.372 45.032 201.852 42.512 201.852 39.536V38.552H206.364V36.8H195.06V38.552ZM211.692 50.312V35H209.556V40.712H205.524V42.44H209.556V50.312H211.692ZM212.148 55.328V53.6H200.004V48.824H197.892V55.328H212.148Z" fill="#EFEFEF"/>
<path d="M232.122 55.976V35H230.01V55.976H232.122ZM227.514 49.352C224.61 47.672 222.258 44.264 222.258 40.328V36.848H220.05V40.424C220.05 44.288 217.818 47.936 214.674 49.928L215.994 51.488C218.37 49.928 220.434 47.264 221.178 44.696C221.946 47.144 224.37 49.64 226.242 50.936L227.514 49.352Z" fill="#EFEFEF"/>
<path d="M234.695 56.528H236.471L237.959 51.68H235.535L234.695 56.528Z" fill="#EFEFEF"/>
<path d="M2.728 70.496H4.624V77.96H14.32V70.496H16.216V87.296H14.32V79.736H4.624V87.296H2.728V70.496Z" fill="#EFEFEF"/>
<path d="M19.7144 84.776H21.9224V87.296H19.7144V84.776Z" fill="#EFEFEF"/>
<path d="M32.1252 87.56C31.0852 87.56 30.1332 87.408 29.2692 87.104C28.4212 86.784 27.6852 86.32 27.0612 85.712C26.4532 85.088 25.9812 84.32 25.6452 83.408C25.3092 82.496 25.1412 81.448 25.1412 80.264V70.496H27.0372V80.144C27.0372 81.968 27.4852 83.368 28.3812 84.344C29.2932 85.32 30.5572 85.808 32.1732 85.808C33.7252 85.808 34.9572 85.344 35.8692 84.416C36.7812 83.488 37.2372 82.104 37.2372 80.264V70.496H39.1332V80.12C39.1332 81.352 38.9652 82.432 38.6292 83.36C38.2932 84.288 37.8132 85.064 37.1892 85.688C36.5812 86.312 35.8452 86.784 34.9812 87.104C34.1332 87.408 33.1812 87.56 32.1252 87.56Z" fill="#EFEFEF"/>
<path d="M42.5841 74.888H44.4321V77.048C44.8481 76.376 45.3921 75.808 46.0641 75.344C46.7361 74.864 47.6081 74.624 48.6801 74.624C49.4321 74.624 50.0961 74.744 50.6721 74.984C51.2641 75.224 51.7601 75.568 52.1601 76.016C52.5761 76.448 52.8881 76.968 53.0961 77.576C53.3201 78.184 53.4321 78.856 53.4321 79.592V87.296H51.5841V80.048C51.5841 78.896 51.2881 77.984 50.6961 77.312C50.1041 76.64 49.2561 76.304 48.1521 76.304C47.6241 76.304 47.1281 76.4 46.6641 76.592C46.2161 76.768 45.8241 77.032 45.4881 77.384C45.1521 77.72 44.8881 78.128 44.6961 78.608C44.5201 79.088 44.4321 79.616 44.4321 80.192V87.296H42.5841V74.888Z" fill="#EFEFEF"/>
<path d="M60.8052 87.512C60.3092 87.512 59.8452 87.448 59.4132 87.32C58.9812 87.192 58.6052 86.992 58.2852 86.72C57.9812 86.432 57.7412 86.064 57.5652 85.616C57.3892 85.168 57.3012 84.632 57.3012 84.008V76.52H55.5732V74.888H57.3012V71.144H59.1492V74.888H63.0852V76.52H59.1492V83.768C59.1492 84.536 59.3412 85.072 59.7252 85.376C60.1092 85.68 60.6132 85.832 61.2372 85.832C61.5572 85.832 61.8532 85.8 62.1252 85.736C62.4132 85.672 62.7172 85.56 63.0372 85.4V86.984C62.7172 87.16 62.3732 87.288 62.0052 87.368C61.6532 87.464 61.2532 87.512 60.8052 87.512Z" fill="#EFEFEF"/>
<path d="M69.6923 86.072C70.2683 86.072 70.8043 85.992 71.3003 85.832C71.7963 85.672 72.2283 85.448 72.5963 85.16C72.9803 84.856 73.2763 84.504 73.4843 84.104C73.7083 83.688 73.8203 83.232 73.8203 82.736V81.584C73.3563 81.456 72.8283 81.336 72.2363 81.224C71.6443 81.112 70.9643 81.056 70.1963 81.056C69.0443 81.056 68.1483 81.288 67.5083 81.752C66.8843 82.2 66.5723 82.8 66.5723 83.552V83.6C66.5723 83.984 66.6523 84.336 66.8123 84.656C66.9883 84.96 67.2203 85.216 67.5083 85.424C67.7963 85.632 68.1243 85.792 68.4923 85.904C68.8763 86.016 69.2763 86.072 69.6923 86.072ZM69.3323 87.56C68.7563 87.56 68.1883 87.48 67.6283 87.32C67.0683 87.16 66.5723 86.92 66.1403 86.6C65.7083 86.264 65.3563 85.856 65.0843 85.376C64.8283 84.896 64.7003 84.336 64.7003 83.696V83.648C64.7003 82.976 64.8283 82.392 65.0843 81.896C65.3403 81.384 65.7003 80.96 66.1643 80.624C66.6443 80.288 67.2043 80.032 67.8443 79.856C68.5003 79.68 69.2203 79.592 70.0043 79.592C70.8043 79.592 71.4923 79.64 72.0683 79.736C72.6603 79.832 73.2363 79.96 73.7963 80.12V79.736C73.7963 78.632 73.4763 77.8 72.8363 77.24C72.1963 76.664 71.2923 76.376 70.1243 76.376C69.3883 76.376 68.7163 76.456 68.1083 76.616C67.5163 76.776 66.9323 76.992 66.3563 77.264L65.8043 75.752C66.4923 75.432 67.1883 75.176 67.8923 74.984C68.5963 74.792 69.4043 74.696 70.3163 74.696C72.0763 74.696 73.4123 75.152 74.3243 76.064C75.1883 76.928 75.6203 78.144 75.6203 79.712V87.296H73.7963V85.448C73.3643 86.008 72.7803 86.504 72.0443 86.936C71.3243 87.352 70.4203 87.56 69.3323 87.56Z" fill="#EFEFEF"/>
<path d="M84.4068 87.584C83.4948 87.584 82.6467 87.416 81.8627 87.08C81.0947 86.728 80.4227 86.264 79.8467 85.688C79.2868 85.096 78.8467 84.408 78.5267 83.624C78.2067 82.84 78.0468 82.016 78.0468 81.152V81.104C78.0468 80.224 78.2067 79.392 78.5267 78.608C78.8467 77.824 79.2868 77.136 79.8467 76.544C80.4227 75.952 81.0947 75.488 81.8627 75.152C82.6467 74.8 83.4948 74.624 84.4068 74.624C84.9988 74.624 85.5347 74.68 86.0147 74.792C86.4948 74.904 86.9347 75.064 87.3347 75.272C87.7347 75.464 88.1028 75.696 88.4388 75.968C88.7747 76.24 89.0867 76.528 89.3747 76.832L88.1507 78.128C87.6547 77.616 87.1108 77.176 86.5188 76.808C85.9428 76.44 85.2308 76.256 84.3828 76.256C83.7588 76.256 83.1748 76.384 82.6308 76.64C82.0868 76.88 81.6148 77.216 81.2148 77.648C80.8148 78.08 80.5027 78.592 80.2787 79.184C80.0547 79.76 79.9427 80.384 79.9427 81.056V81.104C79.9427 81.776 80.0547 82.408 80.2787 83C80.5187 83.576 80.8387 84.088 81.2387 84.536C81.6547 84.968 82.1348 85.312 82.6787 85.568C83.2387 85.808 83.8468 85.928 84.5028 85.928C85.3028 85.928 86.0068 85.752 86.6148 85.4C87.2388 85.048 87.7988 84.608 88.2948 84.08L89.4707 85.184C88.8467 85.888 88.1348 86.464 87.3347 86.912C86.5508 87.36 85.5748 87.584 84.4068 87.584Z" fill="#EFEFEF"/>
<path d="M95.9577 87.512C95.4617 87.512 94.9977 87.448 94.5657 87.32C94.1337 87.192 93.7577 86.992 93.4377 86.72C93.1337 86.432 92.8937 86.064 92.7177 85.616C92.5417 85.168 92.4537 84.632 92.4537 84.008V76.52H90.7257V74.888H92.4537V71.144H94.3017V74.888H98.2377V76.52H94.3017V83.768C94.3017 84.536 94.4937 85.072 94.8777 85.376C95.2617 85.68 95.7657 85.832 96.3897 85.832C96.7097 85.832 97.0057 85.8 97.2777 85.736C97.5657 85.672 97.8697 85.56 98.1897 85.4V86.984C97.8697 87.16 97.5257 87.288 97.1577 87.368C96.8057 87.464 96.4057 87.512 95.9577 87.512Z" fill="#EFEFEF"/>
</svg>
