<svg width="75" height="12" viewBox="0 0 75 12" fill="none" xmlns="http://www.w3.org/2000/svg">
<path d="M5.87241 6.16V1.156H0.916406V6.16H5.87241ZM7.93641 3.04V4.288H6.44841V5.392H7.93641V8.008H9.32841V0.256H7.93641V1.936H6.44841V3.04H7.93641ZM9.54441 10.66V9.544H3.68841V7.348H2.29641V10.66H9.54441ZM4.48041 5.068H2.30841V2.236H4.48041V5.068ZM11.0112 2.08H13.1592C13.1232 3.688 12.1032 4.864 10.5792 5.404L11.4072 6.508C12.4392 6.148 13.5672 5.152 13.8912 4.108C14.3472 5.092 15.4032 5.92 16.2072 6.208L16.9752 5.116C15.7752 4.72 14.6592 3.676 14.5992 2.08H16.6512V0.927999H11.0112V2.08ZM12.2472 7.072V8.176H18.0792V10.96H19.4952V7.072H12.2472ZM19.4832 6.52V0.256H18.0792V2.86H16.4952V3.988H18.0792V6.52H19.4832ZM29.3584 5.368V1.12H24.2224V5.368H29.3584ZM33.0424 9.964C31.6744 9.916 30.2464 9.316 29.7904 8.44H32.6344V7.372H25.1224V8.44H28.0264C27.5584 9.316 26.0824 9.892 24.7264 9.964L25.3624 11.032C26.8864 10.924 28.5064 10.072 28.9024 9.304C29.2984 10.048 30.8704 10.888 32.4064 11.056L33.0424 9.964ZM32.5264 6.148V0.256H31.1224V6.148H32.5264ZM27.9784 4.264H25.6144V2.188H27.9784V4.264ZM30.4864 6.952V5.872H27.1984V6.952H30.4864ZM45.2215 3.856V2.74H39.4615V0.532H38.0455V3.856H40.8775V4.996H36.7495V6.112H46.4095V4.996H42.2815V3.856H45.2215ZM45.4855 10.792V9.676H43.8655L44.2015 8.44L42.8575 8.212L42.5095 9.676H40.5055L40.3255 8.212L38.9215 8.356L39.1735 9.676H37.6375V10.792H45.4855ZM45.3895 7.864V6.76H37.7335V7.864H45.3895ZM55.7243 10.948V0.256H54.3323V10.948H55.7243ZM47.1923 4.816C47.1923 7.06 48.2123 8.62 49.9523 8.62C51.7043 8.62 52.7243 7.048 52.7243 4.816C52.7243 2.56 51.7043 0.987999 49.9523 0.987999C48.2123 0.987999 47.1923 2.56 47.1923 4.816ZM51.3803 4.816C51.3803 6.496 50.7803 7.492 49.9523 7.492C49.1483 7.492 48.5603 6.496 48.5603 4.816C48.5603 3.124 49.1483 2.116 49.9523 2.116C50.7803 2.116 51.3803 3.124 51.3803 4.816ZM60.4995 4.6H61.9635V3.184H60.4995V4.6ZM60.4995 8.944H61.9635V7.528H60.4995V8.944ZM70.3288 9.94C69.7528 9.94 69.2128 9.832 68.7088 9.616C68.2048 9.4 67.7608 9.1 67.3768 8.716C67.0008 8.332 66.7008 7.888 66.4768 7.384C66.2608 6.88 66.1528 6.336 66.1528 5.752C66.1528 5.176 66.2608 4.636 66.4768 4.132C66.7008 3.628 67.0048 3.188 67.3888 2.812C67.7728 2.428 68.2128 2.128 68.7088 1.912C69.2128 1.696 69.7528 1.588 70.3288 1.588C70.9048 1.588 71.4448 1.696 71.9488 1.912C72.4528 2.128 72.8968 2.428 73.2808 2.812C73.6648 3.196 73.9648 3.64 74.1808 4.144C74.3968 4.648 74.5048 5.184 74.5048 5.752C74.5048 6.328 74.3968 6.872 74.1808 7.384C73.9648 7.888 73.6648 8.332 73.2808 8.716C72.9048 9.092 72.4608 9.392 71.9488 9.616C71.4448 9.832 70.9048 9.94 70.3288 9.94ZM70.3288 8.98C70.7688 8.98 71.1808 8.896 71.5648 8.728C71.9568 8.56 72.3008 8.328 72.5968 8.032C72.8928 7.736 73.1248 7.396 73.2928 7.012C73.4608 6.62 73.5448 6.2 73.5448 5.752C73.5448 5.312 73.4608 4.9 73.2928 4.516C73.1248 4.132 72.8928 3.792 72.5968 3.496C72.3088 3.2 71.9688 2.968 71.5768 2.8C71.1928 2.632 70.7768 2.548 70.3288 2.548C69.8888 2.548 69.4728 2.632 69.0808 2.8C68.6968 2.96 68.3568 3.188 68.0608 3.484C67.7648 3.78 67.5328 4.124 67.3648 4.516C67.1968 4.9 67.1128 5.312 67.1128 5.752C67.1128 6.192 67.1928 6.608 67.3528 7C67.5208 7.384 67.7528 7.728 68.0488 8.032C68.3448 8.328 68.6888 8.56 69.0808 8.728C69.4728 8.896 69.8888 8.98 70.3288 8.98ZM71.5888 7.216C71.0848 7.216 70.6568 6.936 70.3048 6.376C69.9528 6.92 69.5448 7.192 69.0808 7.192C68.6808 7.192 68.3608 7.06 68.1208 6.796C67.8808 6.532 67.7608 6.18 67.7608 5.74C67.7608 5.324 67.8848 4.98 68.1328 4.708C68.3808 4.436 68.6968 4.3 69.0808 4.3C69.5688 4.3 69.9848 4.576 70.3288 5.128C70.6648 4.592 71.0848 4.324 71.5888 4.324C71.9888 4.324 72.3048 4.46 72.5368 4.732C72.7768 5.004 72.8968 5.344 72.8968 5.752C72.8968 6.16 72.7728 6.508 72.5248 6.796C72.2848 7.076 71.9728 7.216 71.5888 7.216ZM69.1888 6.328C69.3088 6.328 69.4248 6.284 69.5368 6.196C69.6488 6.1 69.7608 5.948 69.8728 5.74C69.6728 5.356 69.4328 5.164 69.1528 5.164C69.0008 5.164 68.8768 5.22 68.7808 5.332C68.6848 5.444 68.6368 5.584 68.6368 5.752C68.6368 5.928 68.6848 6.068 68.7808 6.172C68.8848 6.276 69.0208 6.328 69.1888 6.328ZM71.4928 6.34C71.6528 6.34 71.7808 6.288 71.8768 6.184C71.9728 6.072 72.0208 5.928 72.0208 5.752C72.0208 5.584 71.9688 5.448 71.8648 5.344C71.7608 5.232 71.6248 5.176 71.4568 5.176C71.2248 5.176 71.0008 5.372 70.7848 5.764C70.9768 6.148 71.2128 6.34 71.4928 6.34Z" fill="#636363"/>
</svg>
